M48
; DRILL file {KiCad (5.1.12)-1} date 07/31/22 01:05:38
; FORMAT={-:-/ absolute / metric / decimal}
; #@! TF.CreationDate,2022-07-31T01:05:38+09:00
; #@! TF.GenerationSoftware,Kicad,Pcbnew,(5.1.12)-1
FMAT,2
METRIC
T1C0.700
T2C1.000
T3C1.100
%
G90
G05
T1
X148.336Y-89.408
X153.416Y-89.408
X155.956Y-89.408
X161.036Y-89.408
T2
X145.796Y-89.408
X145.796Y-91.948
X145.796Y-94.488
X148.336Y-102.108
X150.876Y-102.108
X153.416Y-102.108
X155.956Y-102.108
X158.496Y-102.108
X161.036Y-102.108
T3
X148.463Y-92.179
X148.463Y-98.679
X152.963Y-92.179
X152.963Y-98.679
X156.337Y-92.179
X156.337Y-98.679
X160.837Y-92.179
X160.837Y-98.679
T0
M30
